<svg xmlns="http://www.w3.org/2000/svg" xmlns:xlink="http://www.w3.org/1999/xlink" width="600" height="600" viewBox="0 0 600 600">
  <defs>
    <clipPath id="clip-custom_1">
      <rect width="600" height="600"/>
    </clipPath>
  </defs>
  <g id="custom_1" data-name="custom – 1" clip-path="url(#clip-custom_1)">
    <rect width="600" height="600" fill="#fff"/>
    <g id="unknown_logo" transform="translate(0.038 2.161)">
      <g id="Group_1" data-name="Group 1">
        <path id="Path_1" data-name="Path 1" d="M294.113,579.464c-70.874-30.239-129.069-75.124-172.97-133.407C86.119,399.558,60.16,344.57,43.986,282.623,16.583,177.66,26.665,89.9,27.107,86.211l1.95-16.236,16.008,3.342a334.054,334.054,0,0,0,68.127,7.109c106.841,0,176.989-52.8,177.685-53.333L300,20.1l9.123,6.992c.154.117,17.969,13.545,48.755,26.768A329.663,329.663,0,0,0,486.806,80.427a334.161,334.161,0,0,0,68.129-7.109l16.008-3.342,1.95,16.236c.443,3.685,10.524,91.449-16.879,196.412-16.174,61.948-42.133,116.935-77.157,163.434-43.9,58.283-102.1,103.168-172.97,133.407L300,581.976Z" fill="#2f2f2f"/>
        <path id="Path_2" data-name="Path 2" d="M300,39s73.631,56.426,186.807,56.426A347.78,347.78,0,0,0,558,88s42,349.667-258,477.667C0,437.667,42,88,42,88a347.664,347.664,0,0,0,71.194,7.426C226.355,95.426,300,39,300,39M299.819.839,281.784,15.162c-1.138.843-18.021,13.188-46.532,25.319A314.7,314.7,0,0,1,113.193,65.425,319.05,319.05,0,0,1,48.13,58.632L16.114,51.948l-3.9,32.473c-.457,3.8-10.855,94.305,17.259,201.989,16.67,63.851,43.481,120.6,79.689,168.669,45.5,60.406,105.746,106.9,179.064,138.18L300,598.283l11.773-5.022c73.318-31.283,133.564-77.773,179.064-138.18,36.208-48.07,63.02-104.818,79.689-168.669C598.64,178.727,588.241,88.223,587.785,84.423l-3.9-32.473-32.017,6.684A319.043,319.043,0,0,1,486.8,65.427,314.677,314.677,0,0,1,364.742,40.483C336.111,28.3,319.209,15.9,318.2,15.154L299.819.839Z" fill="#2f2f2f"/>
      </g>
      <g id="Group_2" data-name="Group 2">
        <path id="Path_3" data-name="Path 3" d="M297.057,572.565c-69.651-29.718-126.821-73.8-169.922-131.021C92.7,395.83,67.169,341.725,51.244,280.728c-27.049-103.6-17.126-190-16.69-193.623l.975-8.118,8,1.671a341.584,341.584,0,0,0,69.661,7.268A337.257,337.257,0,0,0,245.569,60.538c31.486-13.583,49.7-27.358,49.875-27.5L300,29.563l4.559,3.485c.175.133,18.38,13.911,49.864,27.494a337.17,337.17,0,0,0,132.38,27.384,341.615,341.615,0,0,0,69.661-7.268l8-1.671.975,8.118c.436,3.627,10.359,90.021-16.689,193.623-15.925,61-41.458,115.1-75.891,160.816-43.1,57.222-100.271,101.3-169.923,131.021L300,573.821Z" transform="translate(-7 8)" fill="#0f1117"/>
        <path id="Path_4" data-name="Path 4" d="M300,39s73.631,56.426,186.807,56.426A347.78,347.78,0,0,0,558,88s42,349.667-258,477.667C0,437.667,42,88,42,88a347.661,347.661,0,0,0,71.193,7.426C226.355,95.426,300,39,300,39m0-18.9-9.1,6.974h0c-.176.134-17.994,13.562-48.782,26.784A329.716,329.716,0,0,1,113.193,80.427a334.085,334.085,0,0,1-68.128-7.11L29.057,69.975l-1.95,16.236c-.112.936-2.743,23.314-1.979,58.748.7,32.538,4.543,82.833,18.858,137.664,16.173,61.948,42.133,116.935,77.157,163.434,43.9,58.283,102.1,103.168,172.97,133.407L300,581.976l5.887-2.512c70.873-30.239,129.069-75.124,172.97-133.407,35.024-46.5,60.983-101.486,77.157-163.434,14.315-54.831,18.156-105.126,18.857-137.664.765-35.434-1.866-57.813-1.979-58.748l-1.95-16.236-16.008,3.342a334.085,334.085,0,0,1-68.128,7.11c-106.853,0-176.986-52.8-177.683-53.332L300,20.1Z" fill="#fff"/>
      </g>
    </g>
    <text id="_" data-name="?" transform="translate(213 400)" fill="#d5d5d5" font-size="314" font-family="ArialMT, Arial"><tspan x="0" y="0">?</tspan></text>
  </g>
</svg>
