<svg xmlns="http://www.w3.org/2000/svg" xmlns:xlink="http://www.w3.org/1999/xlink" width="1680" height="872" viewBox="0 0 1680 872">
  <defs>
    <clipPath id="clip-path">
      <rect id="Rectangle_1" data-name="Rectangle 1" width="1920" height="1080"/>
    </clipPath>
    <clipPath id="clip-Web_1920_2">
      <rect width="1680" height="872"/>
    </clipPath>
  </defs>
  <g id="Web_1920_2" data-name="Web 1920 – 2" clip-path="url(#clip-Web_1920_2)">
    <rect width="1680" height="872" fill="#fff"/>
    <g id="Group_3" data-name="Group 3" transform="translate(1675.408 720.13) rotate(180)">
      <g id="Web_1920_1" data-name="Web 1920 – 1" transform="translate(-4 -117)" clip-path="url(#clip-path)">
        <path id="Path_1" data-name="Path 1" d="M-117.432,853.642l51.423,320.151,1230.1,155.337,1085.1-137.784L1950.354,793.155s-183.827-312.227-407.072-298.226-469.528,232.52-733.755,232.52S327.89,452.21,70.985,494.929-117.432,853.642-117.432,853.642Z" transform="translate(-153 49)" fill="#7c8c9f"/>
      </g>
      <g id="Group_1" data-name="Group 1" transform="translate(-93 -83)">
        <path id="Path_1-2" data-name="Path 1" d="M-174.783,690.94l108.774,482.853,1230.1,155.337,1085.1-137.784L2015.437,668.979s-209.76-161.163-469.114-170.78S1005.633,742.222,741.406,742.222,385.351,487.028,110.5,498.2-174.783,690.94-174.783,690.94Z" transform="translate(172 9)" fill="#7c8c9f" opacity="0.242"/>
      </g>
    </g>
  </g>
</svg>
